<svg xmlns="http://www.w3.org/2000/svg" viewBox="0 0 33.44 41.1"><defs><style>.cls-1{fill:#c2c2c2;}</style></defs><title>1Ресурс 8</title><g id="Слой_2" data-name="Слой 2"><g id="Footer"><g id="Слой_32" data-name="Слой 32"><g id="icon"><path id="Fill-2" class="cls-1" d="M27.92,21.86A9.41,9.41,0,0,1,32.36,14a9.64,9.64,0,0,0-7.53-4.08c-3.17-.33-6.24,1.91-7.85,1.91S12.84,10,10.17,10a10,10,0,0,0-8.44,5.16C-1.91,21.5.8,30.79,4.3,35.9c1.76,2.5,3.79,5.3,6.48,5.2s3.6-1.67,6.75-1.67,4,1.67,6.78,1.61,4.57-2.51,6.27-5a20.51,20.51,0,0,0,2.86-5.84,9.07,9.07,0,0,1-5.52-8.31"/><path id="Fill-3" class="cls-1" d="M22.77,6.59A9.21,9.21,0,0,0,24.87,0a9.35,9.35,0,0,0-6.05,3.14,8.82,8.82,0,0,0-2.16,6.34,7.75,7.75,0,0,0,6.11-2.89"/></g></g></g></g></svg>