<svg width="35" height="40" fill="none" xmlns="http://www.w3.org/2000/svg"><path d="M28.921 21.439a9.012 9.012 0 014.442-7.563 9.751 9.751 0 00-7.535-3.935c-3.165-.322-6.243 1.834-7.854 1.834-1.641 0-4.138-1.792-6.809-1.75a10.063 10.063 0 00-8.435 4.972c-3.644 6.092-.93 15.055 2.569 19.984 1.757 2.409 3.79 5.112 6.476 5.014 2.613-.1 3.6-1.611 6.75-1.611s4.051 1.611 6.78 1.555c2.817-.042 4.574-2.423 6.272-4.86a19.433 19.433 0 002.86-5.631 8.788 8.788 0 01-5.516-8.01M23.768 6.591A9.213 9.213 0 0025.868 0a9.335 9.335 0 00-6.054 3.136A8.829 8.829 0 0017.65 9.48a7.739 7.739 0 006.113-2.889" fill="#A2A2A2"/></svg>