<?xml version="1.0" encoding="utf-8"?>
<!-- Generator: Adobe Illustrator 23.0.1, SVG Export Plug-In . SVG Version: 6.00 Build 0)  -->
<svg version="1.1" id="Слой_1" xmlns="http://www.w3.org/2000/svg" xmlns:xlink="http://www.w3.org/1999/xlink" x="0px" y="0px"
	 viewBox="0 0 48 48" style="enable-background:new 0 0 48 48;" xml:space="preserve">
<style type="text/css">
	.st0{fill:#FFFFFF;}
	.st1{fill:#EAB66E;}
</style>
<title>1Ресурс 2</title>
<g>
	<g id="_3rd_page">
		<circle class="st0" cx="24" cy="24" r="24"/>
		<path class="st1" d="M48,23c-1.2,0-2.4,0.1-3.6,0.3c-1.3,0.2-2.5,0.6-3.7,1.2c-1.5,0.7-2.7,1.8-3.6,3.2c-0.9,1.5-1.3,3.2-1.3,4.9
			c0,1.5,0.4,3,1.2,4.3c0.8,1.2,1.9,2.3,3.2,3c0.4,0.2,0.9,0.4,1.3,0.6C45.7,36,48,30.1,48,24V23z"/>
		<path class="st1" d="M6.8,23.4c-1-0.4-2-0.7-3-0.9c-1.1-0.2-2.2-0.3-3.3-0.2H0V24c0,5.9,2.2,11.6,6.2,16c0.5-0.2,1-0.4,1.5-0.7
			c1.4-0.7,2.6-1.8,3.4-3.2c0.8-1.5,1.2-3.3,1.1-5c0-1.7-0.5-3.4-1.5-4.8C9.7,25.1,8.3,24,6.8,23.4z"/>
		<path class="st1" d="M28.3,40c-1.5-2.3-2.4-5.1-2.3-7.9c0-3,0.8-5.8,2.5-8.3c1.9-2.6,4.5-4.7,7.5-5.8c1.9-0.8,3.8-1.4,5.8-1.7
			c1.5-0.3,3.1-0.5,4.7-0.6C41.9,3.2,28.2-3.2,15.7,1.4C9.1,3.8,3.9,9.1,1.4,15.7c2.3,0.1,4.5,0.4,6.7,0.9c2.1,0.5,4.1,1.3,6,2.3
			c2.4,1.2,4.4,2.9,5.8,5.2c1.3,2.2,2,4.7,2,7.2c0.1,3.1-0.8,6.2-2.5,8.8c-1.6,2.3-3.8,4.2-6.3,5.4c6.8,3.4,14.8,3.4,21.6,0
			C32.2,44.2,30,42.4,28.3,40z"/>
	</g>
</g>
</svg>
