<?xml version="1.0" encoding="utf-8"?>
<!-- Generator: Adobe Illustrator 23.0.1, SVG Export Plug-In . SVG Version: 6.00 Build 0)  -->
<svg version="1.1" id="Слой_1" xmlns="http://www.w3.org/2000/svg" xmlns:xlink="http://www.w3.org/1999/xlink" x="0px" y="0px"
	 viewBox="0 0 70.8 86.8" style="enable-background:new 0 0 70.8 86.8;" xml:space="preserve">
<style type="text/css">
	.st0{fill:url(#icon_flame_1_);}
</style>
<title>1Ресурс 3</title>
<g>
	<g id="_3rd_page">
		
			<linearGradient id="icon_flame_1_" gradientUnits="userSpaceOnUse" x1="35.3756" y1="1.1712" x2="35.3756" y2="88" gradientTransform="matrix(1 0 0 -1 0 88)">
			<stop  offset="0" style="stop-color:#DCB572"/>
			<stop  offset="1" style="stop-color:#E06965"/>
		</linearGradient>
		<path id="icon_flame" class="st0" d="M70.7,49.4c0,0-4.1,5.4-9.1,4.7c0,0,9.1-14-2.9-30C51.6,40.9,31.8,31.9,40.5,0
			C6.6,7.6,11.8,51.6,11.8,51.6c-4.1-2.4-7.7-5.5-10.6-9.3c-5,18.9,6.2,38.3,25.1,43.3s38.3-6.2,43.3-25.1c0.8-3,1.2-6,1.2-9.1
			C70.8,50.7,70.8,50.1,70.7,49.4z"/>
	</g>
</g>
</svg>
