<svg xmlns="http://www.w3.org/2000/svg" viewBox="0 0 31.65 35.84"><defs><style>.cls-1{fill:#c2c2c2;}</style></defs><title>1Ресурс 9</title><g id="Слой_2" data-name="Слой 2"><g id="Footer"><g id="Слой_31" data-name="Слой 31"><path class="cls-1" d="M4.77.46a3.1,3.1,0,0,0-3-.15L17.88,16.44l5.26-5.29ZM.31,1.81A3.3,3.3,0,0,0,0,3.21V32.7a3.09,3.09,0,0,0,.32,1.39L16.4,17.93Zm17.57,17.6L1.82,35.56a3.24,3.24,0,0,0,1.33.28,3,3,0,0,0,1.62-.44L23.15,24.69Zm12.26-4.18h0l-5.1-3-5.66,5.68L25,23.6l5.12-3a3.15,3.15,0,0,0,0-5.38Z"/></g></g></g></svg>