<svg xmlns="http://www.w3.org/2000/svg" viewBox="0 0 144.9 30"><g transform="translate(0 .001)"><linearGradient id="a" gradientUnits="userSpaceOnUse" x1="-196.158" y1="396.808" x2="-175.249" y2="396.881" gradientTransform="matrix(6.8652 0 0 -10.5281 1339.816 4195.993)"><stop offset="0" stop-color="#eab66e"/><stop offset="1" stop-color="#e06965"/></linearGradient><path d="M22.9 13.8c-.8.4-1.5 1-2 1.8s-.7 1.8-.7 2.7c0 .9.2 1.7.6 2.4.4.7 1 1.3 1.8 1.7.6.4 1.3.6 2.1.8.8.2 1.6.3 2.3.2V12.9c-.7 0-1.4.1-2 .2-.8.1-1.5.3-2.1.7z" fill="url(#a)"/><linearGradient id="b" gradientUnits="userSpaceOnUse" x1="-193.182" y1="396.818" x2="-172.22" y2="396.89" gradientTransform="matrix(6.8557 0 0 -10.527 1317.53 4195.136)"><stop offset="0" stop-color="#eab66e"/><stop offset="1" stop-color="#e06965"/></linearGradient><path d="M4.3 22.1c.8-.4 1.5-1.1 1.9-1.8.5-.9.7-1.8.6-2.8 0-1-.3-1.9-.8-2.7-.6-.8-1.3-1.3-2.2-1.7-.5-.2-1.1-.4-1.7-.5-.6-.1-1.2-.1-1.9-.1H0V23c.8 0 1.5-.1 2.3-.2.7-.1 1.3-.3 2-.7z" fill="url(#b)"/><linearGradient id="c" gradientUnits="userSpaceOnUse" x1="-216.923" y1="420.351" x2="-211.608" y2="420.38" gradientTransform="matrix(27.004 0 0 -27.006 5850.896 11365.61)"><stop offset="0" stop-color="#eab66e"/><stop offset="1" stop-color="#e06965"/></linearGradient><path d="M0 0v8.8c1.6 0 3.1.2 4.6.5 1.2.3 2.3.7 3.4 1.3 1.3.6 2.5 1.7 3.3 2.9.7 1.2 1.1 2.6 1.1 4 0 1.7-.4 3.5-1.4 4.9-1 1.4-2.4 2.5-3.9 3.2-1.3.6-2.7.9-4.1 1.1-.5.2-.9.3-1.3.3H25c-.4 0-.9-.1-1.2-.2-1.4-.2-2.8-.6-4.1-1.2-1.5-.7-2.8-1.8-3.8-3.1-.9-1.3-1.3-2.9-1.3-4.4 0-1.7.5-3.3 1.4-4.7 1.1-1.5 2.5-2.6 4.2-3.2 1.1-.4 2.2-.8 3.3-1 1.2-.2 2.3-.4 3.5-.4V0H0z" fill="url(#c)"/></g><g transform="translate(31.135 3.65)"><linearGradient id="d" gradientUnits="userSpaceOnUse" x1="-243.607" y1="411.135" x2="-233.99" y2="411.174" gradientTransform="matrix(14.9256 0 0 -19.7157 3597.979 8115.913)"><stop offset="0" stop-color="#eab66e"/><stop offset="1" stop-color="#e06965"/></linearGradient><path d="M7.2 0c1.6-.1 3.2.4 4.4 1.4 1.1.8 1.7 2.1 1.7 3.5 0 .8-.2 1.7-.7 2.4-.5.7-1.2 1.3-2 1.7v.2c1.2.2 2.4.9 3.2 1.8.8.9 1.2 2 1.1 3.2 0 1-.3 2.1-.8 2.9-.6.9-1.4 1.5-2.3 1.9-1.1.5-2.3.7-3.5.6H0V0h7.2zm-1 8.2c.9 0 1.7-.2 2.4-.7.6-.5.9-1.2.9-2 0-.7-.3-1.4-.8-1.8-.6-.5-1.4-.8-2.2-.7H3.8v5.2h2.4zm.9 8.5c1 .1 2-.2 2.9-.7.7-.5 1-1.3 1-2.1s-.3-1.5-1-2c-.8-.5-1.7-.8-2.6-.7H3.8v5.6l3.3-.1z" fill="url(#d)"/><linearGradient id="e" gradientUnits="userSpaceOnUse" x1="-242.131" y1="401.488" x2="-230.411" y2="401.545" gradientTransform="matrix(12.2528 0 0 -13.4306 2928.753 5405.78)"><stop offset="0" stop-color="#eab66e"/><stop offset="1" stop-color="#e06965"/></linearGradient><path d="M18.8 6.5v8.2c-.1.7.2 1.4.6 2 .4.5 1.1.7 1.7.7.6 0 1.2-.2 1.7-.5.6-.4 1-.9 1.3-1.5V6.5h3.5v13.2h-3.5v-1.8c-1 1.2-2.5 2-4.1 2-1.3.1-2.5-.5-3.4-1.4-.9-1-1.4-2.3-1.3-3.6V6.5h3.5z" fill="url(#e)"/><linearGradient id="f" gradientUnits="userSpaceOnUse" x1="-244.574" y1="411.238" x2="-234.14" y2="411.276" gradientTransform="matrix(13.755 0 0 -19.821 3326.147 8167.956)"><stop offset="0" stop-color="#eab66e"/><stop offset="1" stop-color="#e06965"/></linearGradient><path d="M31.8 6.5l3.1 7.1L38 6.5h3.7l-9.1 19.8h-3.7l4.2-9.1L28 6.5h3.8z" fill="url(#f)"/><linearGradient id="g" gradientUnits="userSpaceOnUse" x1="-248.457" y1="411.115" x2="-240.814" y2="411.154" gradientTransform="matrix(18.7778 0 0 -19.7073 4627.455 8112.265)"><stop offset="0" stop-color="#eab66e"/><stop offset="1" stop-color="#e06965"/></linearGradient><path d="M51.1 0c1.9 0 3.8.4 5.5 1.3 1.6.8 2.8 2 3.7 3.5.9 1.6 1.4 3.3 1.3 5.1 0 1.8-.4 3.6-1.3 5.1-.9 1.5-2.2 2.7-3.8 3.5-1.8.8-3.7 1.3-5.6 1.2h-8V0h8.2zm-.4 16.7c1.9.1 3.7-.6 5.1-1.9 1.3-1.3 2-3.1 1.9-5 .1-1.9-.6-3.7-1.9-5-1.4-1.3-3.3-1.9-5.2-1.8h-3.9v13.8l4-.1z" fill="url(#g)"/><linearGradient id="h" gradientUnits="userSpaceOnUse" x1="-247.048" y1="402.069" x2="-236.633" y2="402.125" gradientTransform="matrix(13.7821 0 0 -13.703 3366.83 5523.246)"><stop offset="0" stop-color="#eab66e"/><stop offset="1" stop-color="#e06965"/></linearGradient><path d="M67.4 6.3c1.4-.1 2.7.3 3.9 1.1.9.7 1.4 1.9 1.3 3v6.2c0 .5.2.7.6.7.3 0 .5-.1.7-.2.3-.1.6-.3.8-.6l.3 1.2c.1.3.3.6.5.9-1.3.7-2.7 1.2-4.2 1.3-.5 0-1-.1-1.4-.3-.4-.3-.6-.7-.7-1.1-1.1.9-2.5 1.4-4 1.4-.9 0-1.8-.3-2.4-1-.7-.6-1-1.4-1-2.3-.1-1 .3-2 1-2.7 1-.8 2.3-1.4 3.6-1.7l2.8-.8v-.6c0-1.3-.8-1.9-2.3-1.9-.8 0-1.6.2-2.4.5-.8.4-1.6.9-2.2 1.6.1-.5.1-1 .1-1.5s-.1-1.1-.2-1.6c1.5-1 3.3-1.6 5.2-1.6zm-2.1 9.9c0 .4.1.9.5 1.2.3.3.7.4 1.1.4.9 0 1.7-.4 2.3-1v-3.5c-.8.3-1.5.6-2.3.9-.5.2-.9.5-1.2.9-.3.3-.4.7-.4 1.1z" fill="url(#h)"/><linearGradient id="i" gradientUnits="userSpaceOnUse" x1="-245.113" y1="407.737" x2="-231.195" y2="407.782" gradientTransform="matrix(10.319 0 0 -16.9405 2491.243 6919.403)"><stop offset="0" stop-color="#eab66e"/><stop offset="1" stop-color="#e06965"/></linearGradient><path d="M78.4 3h.3v3.5h4.8v2.6h-4.8v6.1c0 .5.2 1.1.5 1.4.3.4.8.6 1.4.6.8 0 1.6-.8 2.9-.3v2.7c-1.4-.4-2.1.4-3.5.4-1.3.1-2.5-.4-3.5-1.2-.9-.9-1.3-2.1-1.2-3.3V9.2h-2.1v-.6L78.4 3z" fill="url(#i)"/><linearGradient id="j" gradientUnits="userSpaceOnUse" x1="-229.875" y1="410.641" x2="-193.284" y2="410.682" gradientTransform="matrix(3.9232 0 0 -19.275 863.821 7925.862)"><stop offset="0" stop-color="#eab66e"/><stop offset="1" stop-color="#e06965"/></linearGradient><path d="M85.9.4c1.1 0 2 .9 2 2 0 .5-.2 1-.6 1.4-.7.8-1.9.8-2.7.1l-.1-.1c-.4-.4-.6-.9-.6-1.4 0-.5.2-1 .6-1.4.4-.4.9-.6 1.4-.6zm1.7 6.1v13.2h-3.5V6.5h3.5z" fill="url(#j)"/><linearGradient id="k" gradientUnits="userSpaceOnUse" x1="-248.103" y1="401.466" x2="-236.409" y2="401.524" gradientTransform="matrix(12.2787 0 0 -13.4352 3008.341 5407.505)"><stop offset="0" stop-color="#eab66e"/><stop offset="1" stop-color="#e06965"/></linearGradient><path d="M96 6.3c1.3-.1 2.5.5 3.4 1.4.9 1 1.3 2.3 1.3 3.7v8.4h-3.5v-8c0-.7-.2-1.4-.6-2-.4-.5-1-.8-1.7-.7-.5 0-1.1.2-1.5.5-.6.4-1.1 1-1.6 1.6V20h-3.5V6.5h3.5v1.8c.5-.7 1.2-1.2 2-1.6.6-.3 1.4-.4 2.2-.4z" fill="url(#k)"/><linearGradient id="l" gradientUnits="userSpaceOnUse" x1="-249.694" y1="411.233" x2="-239.03" y2="411.272" gradientTransform="matrix(13.461 0 0 -19.8365 3323.12 8174.642)"><stop offset="0" stop-color="#eab66e"/><stop offset="1" stop-color="#e06965"/></linearGradient><path d="M113.8 6.5L111.5 9c.3.4.6.8.8 1.2.1.4.2.8.2 1.2 0 1.1-.4 2.1-1.2 2.9-1 .9-2.3 1.4-3.6 1.5-.6 0-1.2.2-1.8.4-.3.1-.4.4-.4.7 0 .3.2.5.5.6.6.2 1.1.3 1.7.4 1.5.2 3 .7 4.4 1.5.9.6 1.4 1.6 1.4 2.6 0 1.3-.6 2.5-1.7 3.2-1.5.8-3.2 1.2-4.9 1.1-1.7.1-3.3-.3-4.8-1.1-1.1-.5-1.8-1.6-1.8-2.8 0-1.7 1.2-2.8 3.5-3.5-1-.4-1.5-1-1.5-1.7 0-.9.8-1.6 2.3-1.9v-.1c-1-.2-1.8-.8-2.4-1.5-.6-.7-.9-1.6-.9-2.5 0-1.3.6-2.6 1.6-3.4 1.2-.9 2.7-1.4 4.2-1.3h6.7zm-10.3 15.8c0 1.2 1.2 1.8 3.5 1.8.8 0 1.6-.1 2.4-.5.5-.2.8-.7.9-1.3 0-.6-.4-1.1-1-1.3-.9-.3-1.8-.5-2.8-.4-.8 0-1.5.1-2.2.5-.4.2-.7.7-.8 1.2zm.9-11c0 .6.2 1.3.7 1.7.5.5 1.1.7 1.8.7s1.3-.2 1.8-.7c.5-.5.7-1.1.7-1.8 0-.6-.3-1.2-.7-1.6-.5-.4-1.1-.7-1.7-.7-.7 0-1.3.2-1.8.7-.6.5-.8 1.1-.8 1.7z" fill="url(#l)"/></g></svg>