<svg width="193" height="41" fill="none" xmlns="http://www.w3.org/2000/svg"><path d="M30.486 19.306a6.15 6.15 0 00-2.707 2.372 6.774 6.774 0 00-.965 3.637 6.088 6.088 0 00.858 3.254 6.678 6.678 0 002.36 2.277c.86.474 1.783.82 2.742 1.027 1.026.224 2.074.336 3.124.332h.052V18.192a18.98 18.98 0 00-2.722.242 9.613 9.613 0 00-2.742.872zM5.71 30.466a6.485 6.485 0 002.564-2.432 7.41 7.41 0 00.846-3.72 5.807 5.807 0 00-1.109-3.566 6.73 6.73 0 00-2.928-2.23 9.05 9.05 0 00-2.277-.665 15.698 15.698 0 00-2.468-.192H0v14.012a18.486 18.486 0 002.996-.29 8.72 8.72 0 002.714-.917z" fill="gray"/><path d="M.006.983v11.699c2.068.021 4.127.263 6.144.721 1.57.38 3.082.97 4.495 1.753a10.657 10.657 0 014.327 3.86 10.029 10.029 0 011.49 5.39 11.367 11.367 0 01-1.881 6.556 12.181 12.181 0 01-5.247 4.269 21.183 21.183 0 01-5.496 1.503c-.498.073-1.024.133-1.573.191H33.29a30.065 30.065 0 01-1.649-.203 18.368 18.368 0 01-5.425-1.633 12.125 12.125 0 01-5.02-4.185 10.48 10.48 0 01-1.705-5.902 10.81 10.81 0 011.872-6.2 12.148 12.148 0 015.615-4.317 20.108 20.108 0 014.376-1.3 31.482 31.482 0 014.594-.506V.98L.006.983zM51.061 5.84a8.918 8.918 0 015.878 1.878 5.847 5.847 0 012.272 4.695 5.442 5.442 0 01-.948 3.172 6.448 6.448 0 01-2.75 2.179v.225a7.536 7.536 0 014.27 2.45 6.486 6.486 0 011.53 4.29 6.987 6.987 0 01-1.117 3.896 6.871 6.871 0 01-3.099 2.582c-1.48.606-3.068.9-4.666.864H41.447V5.841h9.614zm-1.35 10.884a4.849 4.849 0 003.172-.958 3.258 3.258 0 001.164-2.662 2.98 2.98 0 00-1.065-2.413 4.26 4.26 0 00-2.827-.888h-3.642v6.921h3.197zm1.182 11.38a6.514 6.514 0 003.886-.968 3.305 3.305 0 001.315-2.845 3.11 3.11 0 00-1.305-2.64 5.76 5.76 0 00-3.502-.966h-4.769v7.417l4.375.001zm15.644-13.571v10.854a3.62 3.62 0 00.855 2.6 2.99 2.99 0 002.262.892 3.972 3.972 0 002.235-.713 5.152 5.152 0 001.73-2.01V14.533h4.62v17.538h-4.62v-2.388a7.295 7.295 0 01-5.407 2.722 5.945 5.945 0 01-4.545-1.84 6.739 6.739 0 01-1.73-4.807V14.533h4.6zm17.188 0l4.149 9.427 4.206-9.425h4.958l-12.113 26.38H79.97l5.577-12.073-6.817-14.309h4.996zM109.42 5.84a15.47 15.47 0 017.285 1.672 12.113 12.113 0 014.957 4.687 13.228 13.228 0 011.765 6.797 13.078 13.078 0 01-1.774 6.826 11.923 11.923 0 01-5.041 4.61 16.531 16.531 0 01-7.492 1.634H98.435V5.84h10.985zm-.532 22.27a9.166 9.166 0 006.751-2.53 8.927 8.927 0 002.545-6.618 8.856 8.856 0 00-2.564-6.703 9.542 9.542 0 00-6.9-2.458h-5.213V28.11h5.381zm22.244-13.915a8.067 8.067 0 015.165 1.438 4.858 4.858 0 011.783 4.009v8.31c0 .664.27.996.808.996.333-.03.656-.13.949-.291a4.741 4.741 0 001.078-.745 7.94 7.94 0 00.432 1.557c.158.421.379.817.653 1.174a13.362 13.362 0 01-5.573 1.767 3.645 3.645 0 01-1.901-.414 2.255 2.255 0 01-.931-1.464 9.14 9.14 0 01-5.314 1.878 4.595 4.595 0 01-3.258-1.276 4.042 4.042 0 01-1.361-3.061 4.762 4.762 0 011.351-3.586 11.486 11.486 0 014.732-2.291l3.738-1.089V20.3c0-1.715-1.039-2.573-3.117-2.573a7.47 7.47 0 00-3.174.733 9.005 9.005 0 00-2.873 2.16 9.2 9.2 0 00.122-1.982c-.02-.702-.095-1.4-.222-2.091a11.006 11.006 0 016.913-2.35zm-2.816 13.177a2.017 2.017 0 001.306 1.981c.26.1.536.147.814.14a4.549 4.549 0 003.043-1.39v-4.612a21.48 21.48 0 00-3.032 1.24 5.555 5.555 0 00-1.616 1.183c-.347.407-.53.929-.515 1.464v-.006zm17.516-17.499h.376v4.659h6.388v3.492h-6.388v8.093a2.625 2.625 0 00.716 1.917 2.261 2.261 0 001.804.733c1.077 0 2.181-1.049 3.86-.356v3.53c-1.814-.598-2.823.47-4.694.47a6.367 6.367 0 01-4.628-1.615 5.816 5.816 0 01-1.663-4.375v-8.394h-2.741v-.752l6.97-7.402zm9.955-3.451a2.629 2.629 0 012.61 2.61 2.592 2.592 0 01-.761 1.831 2.52 2.52 0 01-2.843.59 2.52 2.52 0 01-.838-.59 2.547 2.547 0 01-.78-1.83 2.48 2.48 0 01.79-1.851 2.546 2.546 0 011.822-.76zm2.309 8.111v17.545h-4.62V14.533h4.62zm11.072-.338a5.78 5.78 0 014.497 1.85 6.968 6.968 0 011.682 4.873v11.154h-4.602V21.388a4.147 4.147 0 00-.816-2.705 2.728 2.728 0 00-2.225-.995 3.542 3.542 0 00-2.009.63 9.436 9.436 0 00-2.066 2.093v11.661h-4.618V14.533h4.618v2.46a8.214 8.214 0 012.621-2.15 6.631 6.631 0 012.918-.648z" fill="gray"/><path d="M192.86 14.533l-3.004 3.268a6.319 6.319 0 011.024 1.661 4.57 4.57 0 01.291 1.644 5.615 5.615 0 01-1.577 3.848 7.688 7.688 0 01-4.769 1.971 8.979 8.979 0 00-2.413.517.945.945 0 00-.591.892c0 .362.241.641.722.835.753.261 1.531.447 2.32.554 2.062.222 4.051.888 5.83 1.953a4.06 4.06 0 011.864 3.474 4.815 4.815 0 01-2.272 4.271 11.91 11.91 0 01-6.536 1.493 12.585 12.585 0 01-6.421-1.408 4.25 4.25 0 01-2.385-3.775c0-2.228 1.534-3.767 4.6-4.618-1.331-.575-1.996-1.333-1.996-2.272 0-1.227 1.001-2.07 3.004-2.53v-.075a6.297 6.297 0 01-3.257-2.009 5.1 5.1 0 01-1.211-3.38 5.598 5.598 0 012.14-4.571 8.604 8.604 0 015.59-1.73l9.047-.013zm-13.614 20.992c0 1.565 1.565 2.347 4.695 2.348a6.531 6.531 0 003.182-.648 1.919 1.919 0 001.156-1.7 1.89 1.89 0 00-1.305-1.754 9.191 9.191 0 00-3.689-.591 5.658 5.658 0 00-2.91.665 1.945 1.945 0 00-1.129 1.68zm1.108-14.641a2.99 2.99 0 00.968 2.281 3.307 3.307 0 002.357.912 3.128 3.128 0 002.346-.95 3.293 3.293 0 00.92-2.395 2.818 2.818 0 00-.957-2.17 3.308 3.308 0 00-2.309-.873 3.241 3.241 0 00-2.357.95 3.04 3.04 0 00-.967 2.24l-.001.005z" fill="gray"/></svg>