<?xml version="1.0" encoding="utf-8"?>
<!-- Generator: Adobe Illustrator 23.0.1, SVG Export Plug-In . SVG Version: 6.00 Build 0)  -->
<svg version="1.1" id="Слой_1" xmlns="http://www.w3.org/2000/svg" xmlns:xlink="http://www.w3.org/1999/xlink" x="0px" y="0px"
	 viewBox="0 0 22.6 25.9" style="enable-background:new 0 0 22.6 25.9;" xml:space="preserve">
<style type="text/css">
	.st0{fill:url(#SVGID_1_);}
</style>
<title>1Ресурс 7</title>
<linearGradient id="SVGID_1_" gradientUnits="userSpaceOnUse" x1="0" y1="12.9593" x2="22.58" y2="12.9593">
	<stop  offset="0" style="stop-color:#EAB66E"/>
	<stop  offset="1" style="stop-color:#E06965"/>
</linearGradient>
<path class="st0" d="M15.8,15.6c3.9-2.5,5.1-7.7,2.6-11.6S10.7-1.2,6.8,1.3C2.8,3.8,1.7,9,4.1,12.9c0.7,1.1,1.6,2,2.6,2.6
	C2.7,17.4,0,21.4,0,25.9C0,21.1,6.5,19,11.3,19c4.8,0,11.3,2.1,11.3,6.9C22.6,21.4,19.9,17.4,15.8,15.6z M11.3,14.3
	c-3.2,0-5.8-2.6-5.8-5.8c0-3.2,2.6-5.8,5.8-5.8c3.2,0,5.8,2.6,5.8,5.8C17.1,11.6,14.5,14.3,11.3,14.3z"/>
</svg>
