<svg xmlns="http://www.w3.org/2000/svg" viewBox="0 0 53.19 31"><defs><style>.cls-1{fill:none;}.cls-2{fill:#666;}.cls-3{fill:#979797;}.cls-4{fill:#4e4e4e;}</style></defs><title>1Ресурс 1</title><g id="Слой_2" data-name="Слой 2"><g id="_3rd_page" data-name="3rd_page"><path class="cls-1" d="M15.53,14.28a6.1,6.1,0,1,0-6.09,6.09A6.1,6.1,0,0,0,15.53,14.28Z"/><path class="cls-2" d="M12.59,20.85a7.29,7.29,0,1,0-6.31,0C2,22.19,0,26.24,0,31a9.45,9.45,0,0,1,9.44-9.44A9.35,9.35,0,0,1,15.71,24a9.86,9.86,0,0,1,.46-.92A8.18,8.18,0,0,0,12.59,20.85ZM3.34,14.28a6.1,6.1,0,1,1,6.1,6.09A6.1,6.1,0,0,1,3.34,14.28Z"/><circle class="cls-1" cx="26.53" cy="9.41" r="7.87"/><path class="cls-1" d="M49.85,14.28a6.09,6.09,0,1,0-6.09,6.09A6.09,6.09,0,0,0,49.85,14.28Z"/><path class="cls-3" d="M46.91,20.85a7.29,7.29,0,1,0-6.3,0,8.24,8.24,0,0,0-3.67,2.3c.16.3.31.6.44.91A9.42,9.42,0,0,1,53.19,31C53.19,26.24,51.24,22.19,46.91,20.85Zm-9.24-6.57a6.09,6.09,0,1,1,6.09,6.09A6.09,6.09,0,0,1,37.67,14.28Z"/><path class="cls-4" d="M37.38,24.06c-.13-.31-.28-.61-.44-.91a10.56,10.56,0,0,0-6.34-5.26,9.41,9.41,0,1,0-8.14,0,10.55,10.55,0,0,0-6.29,5.17,9.86,9.86,0,0,0-.46.92,16.94,16.94,0,0,0-1.35,6.39,12,12,0,0,1,1.89-5.88c.16-.25.32-.5.5-.74a12.16,12.16,0,0,1,19.62.09c.18.24.34.48.5.73a12.12,12.12,0,0,1,1.82,5.8A16.79,16.79,0,0,0,37.38,24.06ZM18.66,9.41a7.87,7.87,0,1,1,7.87,7.86A7.88,7.88,0,0,1,18.66,9.41Z"/></g></g></svg>