<svg xmlns="http://www.w3.org/2000/svg" viewBox="0 0 195.67 40.51"><defs><style>.cls-1{fill:#a5a5a5;}</style></defs><title>1Ресурс 43</title><g id="Слой_2" data-name="Слой 2"><g id="Footer"><path class="cls-1" d="M30.92,18.59A6.25,6.25,0,0,0,28.18,21a6.78,6.78,0,0,0-1,3.69,6.18,6.18,0,0,0,.87,3.3,6.88,6.88,0,0,0,2.39,2.31,10.32,10.32,0,0,0,2.79,1,14.26,14.26,0,0,0,3.17.34h0V17.46a18.75,18.75,0,0,0-2.76.25A9.8,9.8,0,0,0,30.92,18.59Z"/><path class="cls-1" d="M5.79,29.91a6.61,6.61,0,0,0,2.6-2.47,7.51,7.51,0,0,0,.86-3.77,5.91,5.91,0,0,0-1.13-3.62,6.9,6.9,0,0,0-3-2.26,9.47,9.47,0,0,0-2.31-.68,16,16,0,0,0-2.51-.19H0V31.14a18.32,18.32,0,0,0,3-.3A8.88,8.88,0,0,0,5.79,29.91Z"/><path class="cls-1" d="M0,0V11.87a29.52,29.52,0,0,1,6.23.73,18,18,0,0,1,4.56,1.78,10.81,10.81,0,0,1,4.4,3.92,10.25,10.25,0,0,1,1.51,5.47,11.56,11.56,0,0,1-1.91,6.65,12.42,12.42,0,0,1-5.33,4.33,21.24,21.24,0,0,1-5.57,1.52c-.51.08-1,.14-1.6.2H33.77c-.6-.06-1.16-.13-1.67-.21a18.54,18.54,0,0,1-5.51-1.65,12.29,12.29,0,0,1-5.09-4.25,10.67,10.67,0,0,1-1.73-6,10.94,10.94,0,0,1,1.9-6.29,12.33,12.33,0,0,1,5.7-4.38,20.59,20.59,0,0,1,4.44-1.32,32.54,32.54,0,0,1,4.66-.51V0Z"/><path class="cls-1" d="M51.8,4.93a9,9,0,0,1,6,1.9,5.93,5.93,0,0,1,2.31,4.76,5.51,5.51,0,0,1-1,3.22A6.45,6.45,0,0,1,56.32,17v.23a7.66,7.66,0,0,1,4.33,2.49,6.55,6.55,0,0,1,1.55,4.35,7.16,7.16,0,0,1-1.13,4,7,7,0,0,1-3.14,2.61,11.69,11.69,0,0,1-4.74.88H42.05V4.93ZM50.43,16a4.91,4.91,0,0,0,3.22-1,3.28,3.28,0,0,0,1.18-2.7,3,3,0,0,0-1.09-2.45A4.31,4.31,0,0,0,50.89,9h-3.7v7Zm1.2,11.54a6.63,6.63,0,0,0,3.94-1,3.36,3.36,0,0,0,1.34-2.89A3.12,3.12,0,0,0,55.58,21,5.77,5.77,0,0,0,52,20H47.19v7.52Z"/><path class="cls-1" d="M67.5,13.75v11a3.69,3.69,0,0,0,.87,2.64,3,3,0,0,0,2.29.9,4,4,0,0,0,2.27-.72,5.1,5.1,0,0,0,1.75-2V13.75h4.69V31.54H74.68V29.12a7.38,7.38,0,0,1-5.48,2.76A6,6,0,0,1,64.59,30a6.85,6.85,0,0,1-1.76-4.88V13.75Z"/><path class="cls-1" d="M84.94,13.75l4.21,9.56,4.27-9.56h5L86.16,40.51h-5l5.66-12.25L79.87,13.75Z"/><path class="cls-1" d="M111,4.93a15.69,15.69,0,0,1,7.39,1.69,12.25,12.25,0,0,1,5,4.77,13.33,13.33,0,0,1,1.79,6.89,13.28,13.28,0,0,1-1.8,6.93,12.06,12.06,0,0,1-5.11,4.67,16.73,16.73,0,0,1-7.6,1.66H99.87V4.93Zm-.53,22.59A9.3,9.3,0,0,0,117.33,25a9.06,9.06,0,0,0,2.58-6.72,9,9,0,0,0-2.6-6.8,9.71,9.71,0,0,0-7-2.49H105V27.52Z"/><path class="cls-1" d="M133,13.4a8.22,8.22,0,0,1,5.24,1.46,5,5,0,0,1,1.81,4.07v8.43c0,.67.27,1,.82,1a2.53,2.53,0,0,0,1-.29,5.11,5.11,0,0,0,1.09-.76,8.17,8.17,0,0,0,.44,1.58,4.64,4.64,0,0,0,.67,1.19,13.61,13.61,0,0,1-5.66,1.79,3.66,3.66,0,0,1-1.93-.42,2.29,2.29,0,0,1-.95-1.48,9.24,9.24,0,0,1-5.39,1.9,4.66,4.66,0,0,1-3.3-1.29,4.13,4.13,0,0,1-1.38-3.11,4.83,4.83,0,0,1,1.37-3.64,11.71,11.71,0,0,1,4.8-2.32l3.79-1.1V19.6c0-1.74-1-2.61-3.16-2.61a7.49,7.49,0,0,0-3.22.74,9.15,9.15,0,0,0-2.92,2.19,9.34,9.34,0,0,0,.13-2,13.3,13.3,0,0,0-.23-2.12A11.14,11.14,0,0,1,133,13.4Zm-2.86,13.38a2.06,2.06,0,0,0,.62,1.56,2.14,2.14,0,0,0,1.53.59,4.63,4.63,0,0,0,3.09-1.41V22.83a23.27,23.27,0,0,0-3.08,1.26,5.94,5.94,0,0,0-1.64,1.2A2.25,2.25,0,0,0,130.18,26.78Z"/><path class="cls-1" d="M148,9h.38v4.73h6.48v3.54h-6.48V25.5a2.71,2.71,0,0,0,.73,1.95,2.31,2.31,0,0,0,1.83.74c1.09,0,2.21-1.07,3.92-.36v3.58c-1.84-.61-2.86.47-4.76.47a6.48,6.48,0,0,1-4.7-1.63,5.94,5.94,0,0,1-1.68-4.44V17.29h-2.78v-.76Z"/><path class="cls-1" d="M158.05,5.52a2.66,2.66,0,0,1,2.65,2.65,2.63,2.63,0,0,1-.77,1.85,2.56,2.56,0,0,1-3.74,0,2.61,2.61,0,0,1-.79-1.85,2.52,2.52,0,0,1,.8-1.88A2.57,2.57,0,0,1,158.05,5.52Zm2.35,8.23V31.54h-4.69V13.75Z"/><path class="cls-1" d="M171.63,13.4a5.86,5.86,0,0,1,4.56,1.88,7.05,7.05,0,0,1,1.71,4.94V31.54h-4.67V20.7A4.21,4.21,0,0,0,172.4,18a2.74,2.74,0,0,0-2.26-1,3.54,3.54,0,0,0-2,.64,9.32,9.32,0,0,0-2.1,2.12V31.54h-4.69V13.75H166v2.49a8.39,8.39,0,0,1,2.66-2.18A6.69,6.69,0,0,1,171.63,13.4Z"/><path class="cls-1" d="M195.67,13.75l-3,3.31a6.56,6.56,0,0,1,1,1.69,4.76,4.76,0,0,1,.29,1.67,5.68,5.68,0,0,1-1.6,3.9q-1.41,1.55-4.84,2a9.25,9.25,0,0,0-2.44.52,1,1,0,0,0-.6.91c0,.37.24.65.73.85a12.89,12.89,0,0,0,2.35.56,14.57,14.57,0,0,1,5.92,2,4.12,4.12,0,0,1,1.89,3.53,4.9,4.9,0,0,1-2.3,4.33,12.09,12.09,0,0,1-6.63,1.51,12.82,12.82,0,0,1-6.52-1.42,4.33,4.33,0,0,1-2.42-3.83c0-2.26,1.56-3.83,4.67-4.69-1.35-.58-2-1.35-2-2.31,0-1.24,1-2.1,3.05-2.57v-.07a6.37,6.37,0,0,1-3.31-2,5.18,5.18,0,0,1-1.23-3.43,5.68,5.68,0,0,1,2.18-4.64,8.73,8.73,0,0,1,5.67-1.76Zm-13.81,21.3c0,1.58,1.58,2.38,4.76,2.38a6.62,6.62,0,0,0,3.23-.66A2,2,0,0,0,191,35.05a1.91,1.91,0,0,0-1.33-1.78,9.11,9.11,0,0,0-3.74-.61,5.72,5.72,0,0,0-2.95.68A2,2,0,0,0,181.86,35.05ZM183,20.19a3.05,3.05,0,0,0,1,2.31,3.34,3.34,0,0,0,2.39.93,3.17,3.17,0,0,0,2.38-1,3.36,3.36,0,0,0,.94-2.43,2.86,2.86,0,0,0-1-2.2,3.32,3.32,0,0,0-2.34-.88,3.28,3.28,0,0,0-2.39,1A3.1,3.1,0,0,0,183,20.19Z"/></g></g></svg>